<?xml version="1.0" encoding="UTF-8" standalone="no"?>
<!-- Created with Inkscape (http://www.inkscape.org/) -->

<svg
   version="1.1"
   id="svg1"
   width="58.105064"
   height="56.153038"
   viewBox="0 0 58.105065 56.153038"
   xmlns="http://www.w3.org/2000/svg"
   xmlns:svg="http://www.w3.org/2000/svg">
  <defs
     id="defs1" />
  <g
     id="g1"
     transform="translate(-84.582709,-7.5631877)">
    <path
       id="path1"
       d="m 106.437,169.4 0.557,-3.583 c 0.154,-0.989 -0.523,-1.915 -1.512,-2.068 l -1.089,-0.17 c -5.5143,-0.857 -8.0328,-7.36 -4.5341,-11.708 l 0.6911,-0.859 c 0.628,-0.779 0.503,-1.919 -0.277,-2.547 l -2.8236,-2.273 c -0.7796,-0.628 -1.9198,-0.503 -2.5478,0.276 l -0.6895,0.858 c -3.4988,4.348 -10.3924,3.276 -12.4073,-1.927 l -0.398,-1.028 c -0.3616,-0.934 -1.4107,-1.397 -2.3444,-1.035 l -3.3801,1.309 c -0.9337,0.361 -1.3971,1.41 -1.0355,2.344 l 0.398,1.028 c 2.0149,5.203 -2.3584,10.638 -7.8731,9.781 l -1.0871,-0.17 c -0.9892,-0.153 -1.9162,0.523 -2.0694,1.512 l -0.5565,3.582 c -0.1532,0.989 0.5224,1.916 1.5117,2.069 l 1.0894,0.17 c 5.514,0.857 8.0324,7.36 4.5337,11.708 l -0.6906,0.859 c -0.628,0.779 -0.503,1.92 0.2765,2.548 l 2.8237,2.272 c 0.7795,0.628 1.9197,0.503 2.5478,-0.276 l 0.6894,-0.858 c 3.4988,-4.347 10.3924,-3.275 12.4073,1.928 l 0.398,1.027 c 0.3616,0.934 1.4107,1.397 2.3445,1.036 l 3.38,-1.309 c 0.9337,-0.362 1.3971,-1.411 1.0355,-2.345 l -0.3979,-1.027 c -2.015,-5.203 2.3587,-10.637 7.8723,-9.782 l 1.088,0.17 c 0.989,0.153 1.916,-0.523 2.069,-1.512 z m -19.1513,0.188 c -2.935,1.137 -6.2407,-0.323 -7.3773,-3.258 -1.1366,-2.935 0.3234,-6.241 3.2584,-7.378 2.935,-1.136 6.2406,0.324 7.3772,3.259 1.1366,2.935 -0.3234,6.24 -3.2583,7.377 z"
       style="fill:currentColor;fill-opacity:1;fill-rule:evenodd;stroke:none"
       transform="matrix(1.3333333,0,0,-1.3333333,0,254.66667)" />
    <path
       id="path5"
       d="m 10.2905,116.466 30.208,30.208 30.2076,-30.208 H 58.6853 L 40.4985,134.653 22.3117,116.466 Z"
       style="fill:currentColor;fill-opacity:1;fill-rule:evenodd;stroke:none"
       transform="matrix(1.3333333,0,0,-1.3333333,0,254.66667)" />
  </g>
</svg>
